<?xml version="1.0" encoding="UTF-8"?>
<svg id="Layer_2" data-name="Layer 2" xmlns="http://www.w3.org/2000/svg" viewBox="0 0 553.03 591.72">
  <defs>
    <style>
      .cls-1 {
        fill: #6045f5;
      }
    </style>
  </defs>
  <g id="Layer_1-2" data-name="Layer 1">
    <path class="cls-1" d="M553.03,93.31c0,10.94-4.33,23.07-12.99,36.4-8.66,13.33-19.77,26.78-33.32,40.33-13.56,13.56-28.66,26.78-45.29,39.65-16.63,12.88-33.04,24.44-49.22,34.69-13.45,8.43-26.38,16.12-38.79,23.07-12.42,6.95-24.04,13.5-34.86,19.65-10.83,6.15-20.68,12.02-29.57,17.6-8.89,5.59-16.63,11.23-23.24,16.92,16.41,2.96,30.99,5.87,43.75,8.72,12.76,2.85,22.9,6.21,30.42,10.08,5.47,3.88,11.05,9.63,16.75,17.26,5.69,7.64,10.82,15.44,15.38,23.41,4.56,7.98,8.26,15.21,11.11,21.7,2.85,6.49,4.27,10.42,4.27,11.79,0,10.03-2.56,20.62-7.69,31.79-5.13,11.17-12.19,22.28-21.19,33.33-9,11.05-19.71,21.7-32.13,31.96-12.42,10.25-25.98,19.54-40.67,27.86-14.7,8.31-30.25,15.38-46.66,21.19s-33.04,9.62-49.9,11.45c-7.52-6.15-14.81-12.71-21.88-19.65-7.06-6.95-13.45-13.45-19.14-19.48-5.7-6.04-10.48-11.28-14.36-15.72-3.88-4.44-6.27-7.23-7.18-8.37-8.2,12.76-16.52,24.38-24.95,34.86-8.43,10.48-16.81,19.31-25.12,26.49-8.32,7.18-16.64,12.65-24.95,16.41-8.32,3.76-16.58,5.41-24.78,4.96-3.42-.23-6.95-1.54-10.6-3.93-3.64-2.39-7.18-5.42-10.6-9.06-3.42-3.65-6.66-7.64-9.74-11.96-3.08-4.33-5.81-8.49-8.2-12.48-2.39-3.99-4.27-7.64-5.64-10.94-1.37-3.31-2.05-5.64-2.05-7.01,0-23.93,5.07-50.59,15.21-79.98,10.14-29.39,23.98-59.81,41.53-91.26,17.54-31.45,38.28-62.94,62.21-94.51,23.93-31.56,49.67-61.46,77.25-89.72,9.11-32.81,16.52-64.71,22.22-95.7,5.69-30.99,8.77-59.36,9.23-85.11,15.04,7.98,27.12,15.78,36.23,23.41,9.11,7.64,16.29,14.41,21.53,20.34,5.92,7.07,10.25,13.79,12.99,20.17,1.37,4.1,2.05,9.91,2.05,17.43,0,1.37-.06,2.79-.17,4.27-.12,1.48-.29,3.02-.51,4.61,31.9-22.78,63.63-40.96,95.19-54.52,31.56-13.55,61.81-20.34,90.75-20.34,3.64,0,7.86,1.37,12.65,4.1s9.62,6.38,14.53,10.94c4.9,4.56,9.79,9.63,14.7,15.21,4.9,5.59,9.23,11.28,12.99,17.09s6.78,11.4,9.06,16.75c2.28,5.36,3.42,9.97,3.42,13.84ZM48.19,526.71c2.05,0,5.07-2.56,9.06-7.69,3.98-5.13,8.66-12.3,14.01-21.53,5.35-9.23,11.28-20.39,17.77-33.5,6.49-13.1,13.27-27.57,20.34-43.41,7.06-15.83,14.3-32.87,21.71-51.1,7.4-18.23,14.75-37.14,22.04-56.74-13.45,17.09-26.09,34.35-37.94,51.78-11.85,17.43-22.5,34.81-31.96,52.12-9.46,17.32-17.55,34.47-24.27,51.44-6.72,16.98-11.68,33.44-14.87,49.39-.68,3.19-.51,5.53.51,7.01,1.03,1.48,2.22,2.22,3.59,2.22ZM229.35,339.4c-12.08,30.99-25.01,61.01-38.79,90.06-13.79,29.05-28.2,55.32-43.24,78.78,25.98-2.28,50.13-6.09,72.46-11.45,22.33-5.35,42.5-12.48,60.5-21.36,18-8.89,33.78-19.82,47.34-32.81,13.55-12.99,24.66-28.25,33.32-45.8-4.56-2.5-9.52-4.79-14.87-6.84-5.36-2.05-11-3.87-16.92-5.47-5.93-1.59-11.91-3.02-17.94-4.27-6.04-1.25-11.91-2.45-17.6-3.59-13.22-2.28-26.89-4.1-41.02-5.47-3.19-.45-6.89-3.87-11.11-10.25-4.22-6.38-8.26-13.55-12.13-21.53ZM282.67,177.05c-3.88,14.13-8.15,28.88-12.82,44.26-4.67,15.38-9.74,31.27-15.21,47.68,20.51-16.63,42.55-32.35,66.14-47.17,23.58-14.81,47-29.91,70.24-45.29s45.23-31.79,65.97-49.22c20.73-17.43,38.51-37.2,53.32-59.3.91-1.14,1.31-2.5,1.2-4.1-.12-1.59-.63-3.13-1.54-4.61-.91-1.48-2.11-2.73-3.59-3.76-1.49-1.03-3.25-1.54-5.3-1.54-12.76,0-27.4,3.02-43.92,9.06-16.52,6.04-34.24,14.47-53.15,25.29-18.92,10.83-38.68,23.81-59.3,38.96-20.63,15.16-41.3,31.73-62.04,49.73Z"/>
  </g>
</svg>