<?xml version="1.0" encoding="UTF-8"?>
<svg id="Layer_2" data-name="Layer 2" xmlns="http://www.w3.org/2000/svg" viewBox="0 0 1486.16 937.89">
  <defs>
    <style>
      .cls-1 {
        fill: #ebebed;
      }
    </style>
  </defs>
  <g id="Layer_1-2" data-name="Layer 1">
    <g>
      <g>
        <path class="cls-1" d="M1223.66,323.85l-141.4,350h141.4v87.5h-255.5v-52.5l141.4-350h-141.4v-87.5h255.5v52.5Z"/>
        <path class="cls-1" d="M1360.16,673.85h126v87.5h-224v-490h98v402.5Z"/>
      </g>
      <path class="cls-1" d="M929.66,358.86v-87.5h-130.7c6.19-7.67,11.75-15.3,16.69-22.91,11.08-17.05,16.62-32.58,16.62-46.57,0-4.96-1.46-10.86-4.37-17.72-2.92-6.84-6.78-13.99-11.59-21.43-4.81-7.43-10.35-14.72-16.62-21.86-6.27-7.15-12.54-13.63-18.81-19.47-6.27-5.83-12.46-10.49-18.58-13.99-6.13-3.5-11.52-5.25-16.18-5.25-37.03,0-75.74,8.68-116.12,26.02-40.39,17.35-80.98,40.61-121.8,69.76.29-2.04.5-4.01.66-5.9.14-1.9.21-3.72.21-5.47,0-9.62-.87-17.06-2.62-22.31-3.5-8.16-9.04-16.76-16.62-25.8-6.71-7.58-15.89-16.25-27.55-26.02-11.67-9.77-27.12-19.75-46.36-29.96-.59,32.95-4.52,69.25-11.81,108.9-7.29,39.65-16.77,80.47-28.43,122.46-35.28,36.15-68.22,74.42-98.84,114.8-30.61,40.39-57.15,80.69-79.59,120.93-22.45,40.23-40.17,79.16-53.14,116.77-12.97,37.61-19.46,71.72-19.46,102.34,0,1.75.87,4.73,2.62,8.96,1.75,4.23,4.16,8.89,7.22,14,3.06,5.1,6.56,10.42,10.49,15.96,3.94,5.54,8.09,10.64,12.47,15.31,4.37,4.66,8.89,8.53,13.56,11.59,4.66,3.06,9.18,4.73,13.55,5.03,10.5.58,21.06-1.53,31.71-6.34,10.64-4.82,21.28-11.81,31.93-21,10.64-9.18,21.35-20.48,32.14-33.89,10.78-13.41,21.43-28.28,31.93-44.61,1.16,1.46,4.22,5.03,9.18,10.71,4.96,5.69,11.08,12.4,18.37,20.12,7.29,7.72,15.45,16.03,24.49,24.93,9.04,8.89,18.37,17.28,27.99,25.15,21.58-2.34,42.86-7.22,63.86-14.65,20.99-7.44,40.89-16.48,59.69-27.12,18.81-10.64,36.15-22.52,52.05-35.64,15.89-13.12,29.59-26.75,41.11-40.89,11.51-14.14,20.55-28.36,27.11-42.65,6.56-14.28,9.84-27.84,9.84-40.67,0-1.75-1.82-6.78-5.46-15.09-3.65-8.31-8.39-17.56-14.22-27.77-5.83-10.2-12.39-20.19-19.68-29.96-7.29-9.76-14.43-17.12-21.43-22.08-9.62-4.96-22.6-9.26-38.92-12.9-16.33-3.65-34.99-7.36-55.98-11.16,8.45-7.28,18.37-14.5,29.74-21.65,11.37-7.14,23.98-14.65,37.83-22.52,13.84-7.87,28.71-16.25,44.61-25.15,15.89-8.89,32.43-18.73,49.64-29.52,10.78-6.83,21.63-14.11,32.57-21.86v388.03h245v-87.5h-147v-115.49h126v-87.5h-126v-112h147ZM292.37,555.25c-9.48,23.33-18.74,45.12-27.77,65.38-9.04,20.27-17.72,38.78-26.02,55.55-8.31,16.77-15.9,31.05-22.75,42.86s-12.83,20.99-17.93,27.55-8.96,9.84-11.59,9.84c-1.75,0-3.28-.94-4.59-2.84-1.31-1.89-1.53-4.88-.66-8.97,4.08-20.4,10.43-41.47,19.03-63.19,8.59-21.72,18.95-43.66,31.05-65.82,12.1-22.16,25.73-44.4,40.89-66.7,15.16-22.3,31.34-44.39,48.55-66.26-9.34,25.08-18.74,49.28-28.21,72.6ZM500.33,564.44c7.28,1.46,14.79,2.99,22.52,4.59,7.72,1.6,15.38,3.43,22.96,5.46,7.58,2.05,14.8,4.38,21.65,7,6.85,2.63,13.19,5.54,19.02,8.75-11.08,22.45-25.29,41.98-42.64,58.6s-37.54,30.62-60.57,41.99c-23.04,11.37-48.84,20.49-77.41,27.33-28.58,6.86-59.48,11.74-92.72,14.65,19.25-30.02,37.68-63.63,55.33-100.8,17.63-37.18,34.18-75.59,49.64-115.25,4.95,10.21,10.12,19.4,15.52,27.56,5.39,8.16,10.13,12.54,14.22,13.12,18.07,1.75,35.56,4.08,52.48,7ZM624.97,308.37c-29.74,19.68-59.7,39-89.87,57.95-30.18,18.95-58.39,39.07-84.63,60.35,7-20.99,13.48-41.33,19.46-61.01,5.97-19.68,11.44-38.55,16.4-56.63,26.53-23.03,52.99-44.25,79.38-63.64,26.38-19.39,51.68-36,75.88-49.86,24.2-13.84,46.86-24.63,68.01-32.36,21.13-7.72,39.86-11.59,56.2-11.59,2.62,0,4.88.66,6.78,1.97,1.89,1.31,3.42,2.92,4.59,4.81,1.16,1.9,1.81,3.87,1.97,5.9.14,2.05-.37,3.8-1.54,5.25-18.95,28.29-41.69,53.58-68.22,75.88-26.54,22.31-54.67,43.3-84.41,62.98Z"/>
      <g>
        <path class="cls-1" d="M791.42,927.88c20.77-4.28,41.9-6.4,62.98-8.02,14.66-1.1,29.39-1.65,44.07-2.03,8.02-.32,15.34-5.86,17.95-13.44,1.25-3.38,1.12-7.02,1.26-10.59,1.23-31.63,3.44-63.36,9.71-94.47,4.3,20.77,6.43,41.9,8.05,62.98.79,10.5,1.28,20.99,1.66,31.49.33,5.6.15,11.28-1.5,16.69-4.65,15.84-20.17,27.53-36.71,27.39-.93.07-4.18-.08-5.13-.08-34.27-1.01-68.64-3.22-102.34-9.91h0Z"/>
        <path class="cls-1" d="M145.82,10.01c-20.77,4.28-41.9,6.4-62.98,8.02-14.66,1.1-29.39,1.65-44.07,2.03-8.02.32-15.34,5.86-17.95,13.44-1.25,3.38-1.12,7.02-1.26,10.59-1.23,31.63-3.44,63.36-9.71,94.47-4.3-20.77-6.43-41.9-8.05-62.98-.79-10.5-1.28-20.99-1.66-31.49-.33-5.6-.15-11.28,1.5-16.69C6.29,11.57,21.81-.12,38.34.02c.93-.07,4.18.08,5.13.08,34.27,1.01,68.64,3.22,102.34,9.91h0Z"/>
        <path class="cls-1" d="M145.82,927.88c-33.7,6.7-68.08,8.9-102.34,9.91-.97.03-4.2.11-5.13.08-16.54.14-32.05-11.55-36.71-27.39-1.65-5.4-1.82-11.09-1.5-16.68.38-10.5.87-20.99,1.66-31.49,1.62-21.08,3.75-42.21,8.05-62.98,6.27,31.11,8.48,62.84,9.71,94.47.14,3.56.02,7.21,1.26,10.59,2.61,7.58,9.92,13.12,17.95,13.44,14.68.39,29.41.94,44.07,2.03,21.08,1.63,42.21,3.74,62.98,8.02h0Z"/>
        <path class="cls-1" d="M791.45,10.01C825.16,3.31,859.53,1.11,893.79.1c.97-.03,4.2-.11,5.13-.08,16.54-.14,32.05,11.55,36.71,27.39,1.65,5.4,1.82,11.09,1.5,16.68-.38,10.5-.87,20.99-1.66,31.49-1.62,21.08-3.75,42.21-8.05,62.98-6.27-31.11-8.48-62.84-9.71-94.47-.14-3.56-.02-7.21-1.26-10.59-2.61-7.58-9.92-13.12-17.95-13.44-14.68-.39-29.41-.94-44.07-2.03-21.08-1.63-42.21-3.74-62.98-8.02h0Z"/>
      </g>
    </g>
  </g>
</svg>